<?xml version="1.0" encoding="UTF-8"?>
<svg id="Layer_1" data-name="Layer 1" xmlns="http://www.w3.org/2000/svg" viewBox="0 0 745.19 350">
  <defs>
    <style>
      .cls-1 {
        fill: #f2a666;
      }

      .cls-1, .cls-2, .cls-3 {
        stroke-width: 0px;
      }

      .cls-2 {
        fill: #fff;
      }

      .cls-3 {
        fill: #4781b3;
      }
    </style>
  </defs>
  <g>
    <path class="cls-2" d="m368,317.67c3.03,0,5.3.67,6.81,2,1.51,1.33,2.27,3.43,2.27,6.27v16.41h-3.37l-.94-3.37h-.18c-1.05,1.32-2.15,2.29-3.3,2.9-1.16.61-2.75.92-4.79.92-2.19,0-4-.59-5.44-1.78-1.44-1.18-2.16-3.03-2.16-5.55s.93-4.33,2.79-5.62c1.86-1.29,4.72-1.99,8.59-2.11l4.14-.14v-1.35c0-1.77-.41-3.02-1.21-3.75-.81-.73-1.95-1.1-3.42-1.1-1.23,0-2.41.18-3.55.54-1.14.36-2.23.8-3.28,1.3l-1.53-3.46c1.14-.6,2.45-1.1,3.93-1.51,1.48-.41,3.04-.61,4.65-.61Zm1.12,13.13c-2.76.12-4.67.58-5.73,1.37-1.06.8-1.6,1.91-1.6,3.35,0,1.26.37,2.17,1.12,2.74.75.57,1.72.85,2.92.85,1.86,0,3.41-.52,4.65-1.57,1.24-1.05,1.87-2.62,1.87-4.72v-2.11l-3.24.09Z"/>
    <path class="cls-2" d="m396.69,317.67c2.82,0,4.98.7,6.47,2.11,1.5,1.41,2.25,3.67,2.25,6.79v15.78h-4.72v-15.11c0-3.78-1.66-5.67-4.99-5.67-2.49,0-4.2.73-5.13,2.2-.93,1.47-1.39,3.58-1.39,6.34v12.23h-4.77v-24.24h3.78l.67,3.24h.27c.78-1.26,1.85-2.19,3.22-2.79s2.81-.9,4.34-.9Z"/>
    <path class="cls-2" d="m434.87,342.36h-12.45v-2.79l3.82-1.12v-24.24l-3.82-1.17v-2.79h12.45v2.79l-3.78,1.17v24.24l3.78,1.12v2.79Z"/>
    <path class="cls-2" d="m469.22,326.26c0,3.84-.74,7.12-2.23,9.85-1.48,2.73-3.71,4.63-6.68,5.71l7.69,8.18h-6.65l-6.12-7.24c-.15,0-.31,0-.47.02-.17.01-.32.02-.47.02-3.39,0-6.19-.69-8.41-2.07-2.22-1.38-3.87-3.31-4.95-5.8-1.08-2.49-1.62-5.4-1.62-8.72s.55-6.18,1.64-8.63c1.09-2.46,2.75-4.38,4.97-5.76,2.22-1.38,5.02-2.07,8.41-2.07s6.05.68,8.25,2.05c2.2,1.36,3.86,3.28,4.97,5.76,1.11,2.47,1.66,5.37,1.66,8.7Zm-24.78,0c0,3.84.8,6.86,2.38,9.08,1.59,2.22,4.08,3.33,7.46,3.33s5.91-1.11,7.47-3.33c1.56-2.22,2.34-5.25,2.34-9.08s-.77-6.85-2.31-9.04c-1.55-2.19-4.03-3.28-7.44-3.28s-5.92,1.09-7.51,3.28c-1.59,2.19-2.38,5.2-2.38,9.04Z"/>
    <path class="cls-2" d="m499.12,310.25l-11.33,32.11h-5.04l-11.29-32.11h4.99l6.88,20.15c.39,1.08.76,2.26,1.12,3.55.36,1.29.63,2.46.81,3.51.18-1.05.45-2.22.81-3.51.36-1.29.73-2.49,1.12-3.6l6.88-20.1h5.04Z"/>
    <path class="cls-2" d="m513.28,342.36h-12.45v-2.79l3.82-1.12v-24.24l-3.82-1.17v-2.79h12.45v2.79l-3.78,1.17v24.24l3.78,1.12v2.79Z"/>
    <path class="cls-2" d="m539.32,342.36l-3.42-9.26h-12.41l-3.42,9.26h-5.04l12.19-32.24h5.04l12.14,32.24h-5.08Zm-8-22.53c-.09-.33-.25-.82-.47-1.48-.22-.66-.44-1.35-.65-2.07-.21-.72-.37-1.3-.49-1.75-.24.93-.51,1.92-.81,2.97-.3,1.05-.54,1.83-.72,2.34l-3.24,9.04h9.62l-3.24-9.04Z"/>
    <path class="cls-2" d="m564.64,316.41c0,.99-.03,1.93-.09,2.83-.06.9-.11,1.59-.14,2.07h.22c.66-1.02,1.58-1.87,2.77-2.56,1.18-.69,2.7-1.03,4.56-1.03,2.91,0,5.25,1.05,7.04,3.15,1.78,2.1,2.68,5.22,2.68,9.35s-.9,7.31-2.7,9.42c-1.8,2.11-4.15,3.17-7.06,3.17-1.89,0-3.41-.34-4.56-1.01-1.16-.67-2.06-1.48-2.72-2.41h-.36l-.9,2.97h-3.51v-34.17h4.77v8.23Zm6.21,5.17c-2.34,0-3.96.68-4.86,2.05s-1.35,3.45-1.35,6.27v.36c0,2.79.44,4.92,1.33,6.41.88,1.48,2.54,2.23,4.97,2.23,1.92,0,3.37-.75,4.36-2.25.99-1.5,1.48-3.66,1.48-6.48,0-5.72-1.98-8.59-5.94-8.59Z"/>
    <path class="cls-2" d="m608.61,318.12v24.24h-3.82l-.67-3.19h-.23c-.78,1.26-1.86,2.18-3.24,2.76-1.38.59-2.83.88-4.36.88-2.85,0-5.02-.7-6.52-2.11-1.5-1.41-2.25-3.64-2.25-6.7v-15.87h4.81v15.15c0,3.75,1.63,5.62,4.9,5.62,2.49,0,4.21-.73,5.17-2.2.96-1.47,1.44-3.57,1.44-6.29v-12.28h4.77Z"/>
    <path class="cls-2" d="m632.17,335.52c0,2.37-.87,4.17-2.61,5.42-1.74,1.25-4.15,1.87-7.24,1.87-1.71,0-3.17-.13-4.39-.38-1.21-.25-2.33-.62-3.35-1.1v-4.18c1.05.51,2.29.97,3.71,1.37s2.81.61,4.16.61c1.8,0,3.09-.28,3.89-.85.79-.57,1.19-1.33,1.19-2.29,0-.54-.15-1.03-.45-1.46-.3-.44-.86-.88-1.69-1.35-.83-.46-2.03-1-3.62-1.6-1.56-.63-2.87-1.25-3.93-1.87-1.06-.61-1.88-1.35-2.45-2.2-.57-.85-.85-1.96-.85-3.31,0-2.1.85-3.71,2.54-4.83,1.69-1.12,3.94-1.69,6.72-1.69,1.47,0,2.86.15,4.16.45,1.3.3,2.57.72,3.8,1.26l-1.57,3.64c-1.05-.45-2.13-.83-3.24-1.15-1.11-.31-2.23-.47-3.37-.47-1.44,0-2.53.22-3.28.67-.75.45-1.12,1.08-1.12,1.89,0,.57.18,1.06.54,1.48.36.42.97.84,1.82,1.26.85.42,2.03.93,3.53,1.53,1.5.57,2.78,1.16,3.84,1.75,1.06.6,1.87,1.33,2.43,2.2.55.87.83,1.98.83,3.33Z"/>
    <path class="cls-2" d="m640.27,308.9c.72,0,1.35.21,1.89.63.54.42.81,1.12.81,2.11s-.27,1.66-.81,2.09c-.54.44-1.17.65-1.89.65-.78,0-1.43-.22-1.96-.65-.53-.43-.79-1.13-.79-2.09s.26-1.69.79-2.11c.52-.42,1.18-.63,1.96-.63Zm2.34,9.22v24.24h-4.77v-24.24h4.77Z"/>
    <path class="cls-2" d="m662.34,317.67c2.82,0,4.98.7,6.47,2.11,1.5,1.41,2.25,3.67,2.25,6.79v15.78h-4.72v-15.11c0-3.78-1.66-5.67-4.99-5.67-2.49,0-4.2.73-5.13,2.2-.93,1.47-1.39,3.58-1.39,6.34v12.23h-4.77v-24.24h3.78l.67,3.24h.27c.78-1.26,1.85-2.19,3.22-2.79s2.81-.9,4.34-.9Z"/>
    <path class="cls-2" d="m687.93,317.67c3.18,0,5.68.98,7.51,2.95,1.83,1.96,2.74,4.64,2.74,8.03v2.61h-16.28c.06,2.49.71,4.39,1.96,5.71,1.24,1.32,2.99,1.98,5.24,1.98,1.56,0,2.94-.14,4.16-.43,1.22-.28,2.47-.71,3.76-1.28v3.96c-1.23.54-2.46.94-3.69,1.21s-2.7.41-4.41.41c-2.37,0-4.44-.47-6.23-1.39-1.78-.93-3.18-2.32-4.18-4.16-1-1.84-1.51-4.11-1.51-6.81s.46-5.04,1.37-6.93c.91-1.89,2.19-3.33,3.82-4.34s3.55-1.51,5.73-1.51Zm0,3.69c-1.71,0-3.08.56-4.11,1.66-1.03,1.11-1.64,2.68-1.82,4.72h11.42c-.03-1.89-.49-3.42-1.37-4.61-.88-1.19-2.26-1.78-4.11-1.78Z"/>
    <path class="cls-2" d="m720.21,335.52c0,2.37-.87,4.17-2.61,5.42-1.74,1.25-4.15,1.87-7.24,1.87-1.71,0-3.17-.13-4.39-.38-1.21-.25-2.33-.62-3.35-1.1v-4.18c1.05.51,2.29.97,3.71,1.37s2.81.61,4.16.61c1.8,0,3.09-.28,3.89-.85.79-.57,1.19-1.33,1.19-2.29,0-.54-.15-1.03-.45-1.46-.3-.44-.86-.88-1.69-1.35-.83-.46-2.03-1-3.62-1.6-1.56-.63-2.87-1.25-3.93-1.87-1.06-.61-1.88-1.35-2.45-2.2s-.85-1.96-.85-3.31c0-2.1.85-3.71,2.54-4.83,1.69-1.12,3.94-1.69,6.72-1.69,1.47,0,2.86.15,4.16.45,1.3.3,2.57.72,3.8,1.26l-1.57,3.64c-1.05-.45-2.13-.83-3.24-1.15-1.11-.31-2.23-.47-3.37-.47-1.44,0-2.53.22-3.28.67-.75.45-1.12,1.08-1.12,1.89,0,.57.18,1.06.54,1.48.36.42.97.84,1.82,1.26.85.42,2.03.93,3.53,1.53,1.5.57,2.78,1.16,3.84,1.75,1.06.6,1.87,1.33,2.43,2.2.55.87.83,1.98.83,3.33Z"/>
    <path class="cls-2" d="m741.98,335.52c0,2.37-.87,4.17-2.61,5.42-1.74,1.25-4.15,1.87-7.24,1.87-1.71,0-3.17-.13-4.39-.38-1.21-.25-2.33-.62-3.35-1.1v-4.18c1.05.51,2.29.97,3.71,1.37s2.81.61,4.16.61c1.8,0,3.09-.28,3.89-.85.79-.57,1.19-1.33,1.19-2.29,0-.54-.15-1.03-.45-1.46-.3-.44-.86-.88-1.69-1.35-.83-.46-2.03-1-3.62-1.6-1.56-.63-2.87-1.25-3.93-1.87-1.06-.61-1.88-1.35-2.45-2.2-.57-.85-.85-1.96-.85-3.31,0-2.1.85-3.71,2.54-4.83,1.69-1.12,3.94-1.69,6.72-1.69,1.47,0,2.86.15,4.16.45,1.3.3,2.57.72,3.8,1.26l-1.57,3.64c-1.05-.45-2.13-.83-3.24-1.15-1.11-.31-2.23-.47-3.37-.47-1.44,0-2.53.22-3.28.67-.75.45-1.12,1.08-1.12,1.89,0,.57.18,1.06.54,1.48.36.42.97.84,1.82,1.26.85.42,2.03.93,3.53,1.53,1.5.57,2.78,1.16,3.84,1.75,1.06.6,1.87,1.33,2.43,2.2.55.87.83,1.98.83,3.33Z"/>
  </g>
  <g>
    <path class="cls-2" d="m61.09,20.44C68.25,7.9,81.58.15,96.02.15h114.62c14.62,0,28.08,7.93,35.16,20.72l54.92,99.11c6.75,12.18,6.72,26.98-.09,39.12l-54.8,97.88c-7.11,12.7-20.53,20.56-35.08,20.56h-114.62c-14.5,0-27.88-7.81-35.01-20.44L5.19,157.99c-6.95-12.32-6.92-27.39.09-39.67L61.09,20.44Z"/>
    <path class="cls-2" d="m358.88,196.94V3.05h95.74c12.55,0,23.61,2.31,33.21,6.92,9.78,4.43,17.44,10.62,22.97,18.56,5.54,7.94,8.3,17.08,8.3,27.42,0,9.05-2.58,17.27-7.75,24.65-5.17,7.2-11.99,13.02-20.48,17.45,10.15,4.06,18.26,10.06,24.35,18,6.27,7.76,9.41,16.62,9.41,26.59,0,10.53-2.86,19.94-8.58,28.25-5.53,8.12-13.19,14.5-22.97,19.11-9.78,4.62-21.12,6.92-34.03,6.92h-100.17Zm47.59-116.06h42.62c6.64,0,11.99-1.85,16.05-5.54,4.06-3.69,6.09-8.49,6.09-14.4s-2.03-10.89-6.09-14.4c-3.88-3.69-9.22-5.54-16.05-5.54h-42.62v39.89Zm0,78.11h46.49c7.2,0,12.92-1.94,17.16-5.82,4.24-3.88,6.36-9.05,6.36-15.51s-2.12-11.63-6.36-15.51c-4.24-3.88-9.96-5.82-17.16-5.82h-46.49v42.66Zm138.5,37.95v-30.47l81.91-81.16c3.14-2.95,5.63-5.82,7.47-8.59,1.85-2.95,3.23-5.91,4.15-8.86.92-2.95,1.39-5.91,1.39-8.86,0-6.28-2.77-11.45-8.3-15.51-5.35-4.25-12.08-6.37-20.2-6.37-8.67,0-16.79,1.85-24.35,5.54-7.56,3.51-15.77,9.6-24.63,18.28l-23.79-29.08c11.07-10.53,22.78-18.47,35.14-23.82,12.55-5.36,25.55-8.03,39.02-8.03s25.83,2.4,35.97,7.2c10.33,4.62,18.36,11.17,24.08,19.67,5.72,8.31,8.57,18.1,8.57,29.36,0,6.09-.92,12-2.77,17.73-1.66,5.54-4.33,10.99-8.02,16.34-3.69,5.35-8.49,10.89-14.39,16.62l-55.9,54.01,83.85-.28v36.29h-139.19Zm158.12,0v-126.43h39.65v126.43h-39.65Zm19.83-145.79c-6.04,0-11.26-2.21-15.67-6.62-4.41-4.41-6.61-9.64-6.61-15.68s2.2-11.43,6.61-15.68c4.41-4.41,9.63-6.62,15.67-6.62s11.42,2.21,15.67,6.62c4.41,4.25,6.61,9.47,6.61,15.68s-2.2,11.27-6.61,15.68c-4.25,4.41-9.47,6.62-15.67,6.62Z"/>
    <path class="cls-1" d="m357.96,276.84v-53.1l12.07-1.86v22.74c1.49-2.24,3.25-3.93,5.29-5.07,2.09-1.19,4.37-1.79,6.85-1.79s4.67.57,6.56,1.71c1.94,1.09,3.45,2.64,4.54,4.62,1.09,1.94,1.64,4.2,1.64,6.79v25.95h-12.07v-22.45c0-2.19-.6-3.93-1.79-5.22-1.14-1.29-2.68-1.94-4.62-1.94-1.29,0-2.48.27-3.58.82-1.04.5-1.99,1.29-2.83,2.39v26.4h-12.07Zm64.23.75c-3.77,0-7.2-.87-10.28-2.61-3.03-1.79-5.46-4.18-7.3-7.16-1.79-3.03-2.68-6.41-2.68-10.14s.84-7.16,2.53-10.14c1.69-2.98,4-5.34,6.93-7.08,2.93-1.79,6.24-2.68,9.91-2.68s7,.87,9.83,2.61c2.83,1.74,5.04,4.15,6.63,7.23,1.64,3.03,2.46,6.54,2.46,10.51v2.61h-26.45c.4,1.44,1.02,2.71,1.86,3.8.85,1.09,1.89,1.94,3.13,2.54,1.24.6,2.58.89,4.02.89,1.59,0,3.03-.27,4.32-.82,1.34-.55,2.44-1.34,3.28-2.39l7.97,6.64c-2.48,2.19-4.99,3.78-7.53,4.77-2.53.94-5.42,1.42-8.64,1.42Zm-8.42-23.71h15.27c-.35-1.39-.89-2.59-1.64-3.58-.75-.99-1.64-1.76-2.69-2.31-1.04-.55-2.21-.82-3.5-.82s-2.38.27-3.43.82c-.99.5-1.84,1.24-2.53,2.24-.65.99-1.14,2.21-1.49,3.65Zm45.06,23.57c-2.58,0-4.89-.5-6.93-1.49-1.99-.99-3.55-2.36-4.7-4.1-1.09-1.74-1.64-3.75-1.64-6.04s.6-4.4,1.78-6.04c1.19-1.69,2.91-2.96,5.14-3.8,2.24-.89,4.92-1.34,8.05-1.34,1.39,0,2.81.15,4.25.45,1.44.25,3,.7,4.69,1.34v-3.13c0-1.89-.62-3.28-1.86-4.18-1.24-.94-3.16-1.42-5.74-1.42-1.44,0-3.06.22-4.84.67-1.74.4-3.73,1.07-5.96,2.01l-4.17-8.43c6.21-2.78,12.09-4.18,17.66-4.18s9.44,1.27,12.37,3.8c2.98,2.54,4.47,6.09,4.47,10.66v24.61h-11.92v-3.36c-1.69,1.39-3.38,2.41-5.07,3.06-1.69.6-3.55.89-5.59.89Zm-2.16-11.86c0,1.24.52,2.21,1.56,2.91,1.04.65,2.48.97,4.32.97,1.29,0,2.51-.15,3.65-.45,1.14-.35,2.24-.85,3.28-1.49v-4.92c-1.09-.25-2.18-.45-3.28-.6-1.09-.15-2.21-.22-3.35-.22-1.99,0-3.53.32-4.62.97-1.04.65-1.56,1.59-1.56,2.83Zm33.46,11.26v-53.1l12.07-1.86v54.96h-12.07Zm39.94.75c-4.52,0-7.95-1.04-10.28-3.13-2.34-2.09-3.5-5.17-3.5-9.25v-17.52h-7.45v-9.32h7.45v-10.66l12.07-2.46v13.12h10.28v9.32h-10.28v15.14c0,1.69.37,2.88,1.12,3.58.8.7,2.11,1.04,3.95,1.04.7,0,1.39-.05,2.09-.15.7-.1,1.64-.32,2.83-.67v9.77c-1.09.35-2.43.62-4.02.82-1.59.25-3.01.37-4.25.37Zm14.9-.75v-53.1l12.07-1.86v22.74c1.49-2.24,3.25-3.93,5.29-5.07,2.09-1.19,4.37-1.79,6.85-1.79s4.67.57,6.55,1.71c1.94,1.09,3.45,2.64,4.55,4.62,1.09,1.94,1.64,4.2,1.64,6.79v25.95h-12.07v-22.45c0-2.19-.59-3.93-1.78-5.22-1.14-1.29-2.68-1.94-4.62-1.94-1.29,0-2.48.27-3.58.82-1.04.5-1.99,1.29-2.83,2.39v26.4h-12.07Zm63.86.75c-3.73,0-7.1-.87-10.13-2.61-2.98-1.79-5.36-4.18-7.15-7.16-1.74-3.03-2.61-6.41-2.61-10.14s.87-7.16,2.61-10.14c1.79-2.98,4.17-5.34,7.15-7.08,3.03-1.79,6.41-2.68,10.13-2.68,3.18,0,6.16.62,8.94,1.86,2.78,1.19,5.14,2.93,7.08,5.22l-7.38,7.38c-1.24-1.44-2.5-2.49-3.8-3.13-1.29-.7-2.75-1.04-4.39-1.04s-3.03.42-4.32,1.27c-1.24.85-2.24,1.99-2.98,3.43-.7,1.44-1.05,3.08-1.05,4.92s.35,3.48,1.05,4.92c.74,1.44,1.74,2.58,2.98,3.43,1.29.85,2.73,1.27,4.32,1.27s3.1-.32,4.39-.97c1.29-.7,2.56-1.76,3.8-3.21l7.38,7.38c-1.94,2.29-4.3,4.05-7.08,5.29-2.78,1.19-5.76,1.79-8.94,1.79Zm33.08-.15c-2.58,0-4.89-.5-6.93-1.49-1.99-.99-3.55-2.36-4.7-4.1-1.09-1.74-1.64-3.75-1.64-6.04s.6-4.4,1.79-6.04c1.19-1.69,2.91-2.96,5.14-3.8,2.24-.89,4.92-1.34,8.04-1.34,1.39,0,2.81.15,4.25.45,1.44.25,3,.7,4.69,1.34v-3.13c0-1.89-.62-3.28-1.86-4.18-1.24-.94-3.16-1.42-5.74-1.42-1.44,0-3.06.22-4.84.67-1.74.4-3.72,1.07-5.96,2.01l-4.17-8.43c6.21-2.78,12.09-4.18,17.66-4.18s9.44,1.27,12.37,3.8c2.98,2.54,4.47,6.09,4.47,10.66v24.61h-11.92v-3.36c-1.69,1.39-3.38,2.41-5.07,3.06-1.69.6-3.55.89-5.59.89Zm-2.16-11.86c0,1.24.52,2.21,1.56,2.91,1.04.65,2.48.97,4.32.97,1.29,0,2.51-.15,3.65-.45,1.14-.35,2.24-.85,3.28-1.49v-4.92c-1.09-.25-2.18-.45-3.28-.6-1.09-.15-2.21-.22-3.35-.22-1.99,0-3.53.32-4.62.97-1.05.65-1.56,1.59-1.56,2.83Zm33.46,11.26v-38.48h12.07v8.72c1.24-3.23,2.71-5.62,4.39-7.16,1.74-1.54,3.75-2.31,6.03-2.31.84.05,1.54.12,2.09.22.55.1,1.19.35,1.94.75v10.37c-.75-.4-1.62-.7-2.61-.89-.99-.2-2.01-.3-3.06-.3-1.78,0-3.45.45-4.99,1.34-1.54.85-2.81,1.99-3.8,3.43v24.31h-12.07Zm49.97.75c-3.77,0-7.2-.87-10.28-2.61-3.03-1.79-5.46-4.18-7.3-7.16-1.78-3.03-2.68-6.41-2.68-10.14s.84-7.16,2.53-10.14c1.69-2.98,4-5.34,6.93-7.08,2.93-1.79,6.23-2.68,9.91-2.68s7,.87,9.84,2.61c2.83,1.74,5.04,4.15,6.63,7.23,1.64,3.03,2.46,6.54,2.46,10.51v2.61h-26.45c.4,1.44,1.02,2.71,1.86,3.8.84,1.09,1.89,1.94,3.13,2.54,1.24.6,2.58.89,4.02.89,1.59,0,3.03-.27,4.32-.82,1.34-.55,2.43-1.34,3.28-2.39l7.97,6.64c-2.48,2.19-4.99,3.78-7.52,4.77-2.54.94-5.42,1.42-8.64,1.42Zm-8.42-23.71h15.27c-.35-1.39-.9-2.59-1.64-3.58-.74-.99-1.64-1.76-2.68-2.31-1.05-.55-2.21-.82-3.5-.82s-2.38.27-3.43.82c-.99.5-1.84,1.24-2.53,2.24-.64.99-1.14,2.21-1.49,3.65Z"/>
    <circle class="cls-1" cx="124.99" cy="167.09" r="16.58"/>
    <circle class="cls-1" cx="206.62" cy="87.62" r="13.35"/>
    <circle class="cls-1" cx="228.8" cy="158.9" r="10.12"/>
    <circle class="cls-1" cx="151.27" cy="131.34" r="10.12"/>
    <circle class="cls-1" cx="83.64" cy="96.45" r="10.12"/>
    <g>
      <circle class="cls-3" cx="151.91" cy="172.47" r="6.89"/>
      <g>
        <circle class="cls-3" cx="231.17" cy="120.35" r="18.09"/>
        <circle class="cls-3" cx="117.67" cy="83.96" r="14"/>
        <circle class="cls-3" cx="196.92" cy="193.79" r="10.12"/>
        <circle class="cls-3" cx="210.28" cy="210.59" r="7.11"/>
        <circle class="cls-3" cx="126.5" cy="134.57" r="6.89"/>
        <circle class="cls-3" cx="197.14" cy="117.34" r="6.89"/>
        <path class="cls-3" d="m186.8,130.26c-1.17,0-2.33.08-3.46.23l-9.03-26.24c6.49-4.32,10.77-11.7,10.77-20.08,0-13.32-10.8-24.12-24.12-24.12s-24.12,10.8-24.12,24.12c0,3.27.65,6.39,1.83,9.23l-35.8,25.09c-4.95-4.72-11.64-7.62-19.01-7.62-15.22,0-27.57,12.34-27.57,27.57s12.34,27.57,27.57,27.57,27.57-12.34,27.57-27.57c0-3.64-.71-7.12-2-10.31l36.18-25.36c4.17,3.44,9.52,5.51,15.35,5.51.8,0,1.59-.04,2.37-.12l9.08,26.38c-7.15,4.69-11.88,12.78-11.88,21.98,0,14.51,11.76,26.27,26.27,26.27s26.27-11.76,26.27-26.27-11.76-26.27-26.27-26.27Z"/>
      </g>
    </g>
  </g>
</svg>